<svg xmlns="http://www.w3.org/2000/svg" viewBox="0 0 220 50" height="40" aria-label="Akrasia">
  <!-- Symbol A – škálovaný na výšku 50px (orig. 143.45px → scale 0.3486) -->
  <g transform="scale(0.3486)">
    <path fill="#4e5699" d="M86.33,28.39l-6.17-2.64L5.68,95.55l-4.87-2.08-.81,1.9,26.23,11.21,.81-1.9-12.22-5.23,16.78-19.22,27.3,11.67-.16,26.32-9.73-4.16-.81,1.9,38.93,16.64,.07-5.32-.86-98.89Zm-53.23,49.96l25.87-29.65-.12,40.66-25.75-11.01Z"/>
    <path fill="#4e5699" d="M115.53,114.66c-9.16,0-14.33,5.81-14.33,14.33s5.16,14.46,14.33,14.46,14.33-5.81,14.33-14.46-5.16-14.33-14.33-14.33Z"/>
    <polygon fill="#4e5699" points="128.44 106.59 128.44 0 95.27 11.62 102.63 17.94 102.63 94.58 102.63 106.59 102.63 108.66 134.89 108.66 134.89 106.59 128.44 106.59"/>
  </g>
  <!-- Text "krasia" v Bely Display – vložen jako text s font-face reference -->
  <text x="52" y="39"
        font-family="'Bely Display', Georgia, 'Times New Roman', serif"
        font-size="38"
        fill="#4e5699"
        letter-spacing="-0.5">krasia</text>
</svg>
