<?xml version="1.0" encoding="UTF-8" standalone="no"?>
<!DOCTYPE svg PUBLIC "-//W3C//DTD SVG 1.1//EN" "http://www.w3.org/Graphics/SVG/1.1/DTD/svg11.dtd">
<svg width="100%" height="100%" viewBox="0 0 263 450" version="1.1" xmlns="http://www.w3.org/2000/svg" xmlns:xlink="http://www.w3.org/1999/xlink" xml:space="preserve" xmlns:serif="http://www.serif.com/" style="fill-rule:evenodd;clip-rule:evenodd;stroke-linejoin:round;stroke-miterlimit:2;">
    <g transform="matrix(1,0,0,1,-702.992236,-238.016)">
        <g transform="matrix(-63.090281,492.496359,492.496359,63.090281,835.777337,148.08454)">
            <path d="M0.706,-0.148L0.718,-0.086L0.269,0.003L0.195,-0.055L0.146,0.283L0.767,0.16L0.779,0.221L0.799,0.217L0.726,-0.152L0.706,-0.148Z" style="fill:url(#_Linear1);fill-rule:nonzero;"/>
        </g>
        <g transform="matrix(-63.090281,492.496359,492.496359,63.090281,766.387512,139.195493)">
            <path d="M0.926,-0.001C1.008,-0.017 1.073,0.021 1.091,0.109C1.108,0.196 1.062,0.256 0.98,0.273C0.899,0.289 0.833,0.25 0.816,0.163C0.812,0.144 0.811,0.125 0.814,0.109C0.821,0.051 0.863,0.012 0.926,-0.001Z" style="fill:url(#_Linear2);fill-rule:nonzero;"/>
        </g>
    </g>
    <defs>
        <linearGradient id="_Linear1" x1="0" y1="0" x2="1" y2="0" gradientUnits="userSpaceOnUse" gradientTransform="matrix(1,0,0,-1,0,0.130928)"><stop offset="0" style="stop-color:rgb(242,222,235);stop-opacity:1"/><stop offset="0.53" style="stop-color:rgb(244,231,216);stop-opacity:1"/><stop offset="1" style="stop-color:rgb(247,240,193);stop-opacity:1"/></linearGradient>
        <linearGradient id="_Linear2" x1="0" y1="0" x2="1" y2="0" gradientUnits="userSpaceOnUse" gradientTransform="matrix(1,0,0,-1,0,0.271822)"><stop offset="0" style="stop-color:rgb(242,222,235);stop-opacity:1"/><stop offset="0.53" style="stop-color:rgb(244,231,216);stop-opacity:1"/><stop offset="1" style="stop-color:rgb(247,240,193);stop-opacity:1"/></linearGradient>
    </defs>
</svg>
